<?xml version="1.0" encoding="UTF-8"?>
<svg id="Camada_1" data-name="Camada 1" xmlns="http://www.w3.org/2000/svg" xmlns:xlink="http://www.w3.org/1999/xlink" viewBox="0 0 226.12 163.01">
  <defs>
    <style>
      .cls-1 {
        fill: #fff;
      }

      .cls-2 {
        fill: url(#Gradiente_sem_nome_13);
      }

      .cls-3 {
        fill: url(#Gradiente_sem_nome_10);
      }

      .cls-4 {
        fill: url(#Gradiente_sem_nome_11);
      }
    </style>
    <linearGradient id="Gradiente_sem_nome_11" data-name="Gradiente sem nome 11" x1="32.08" y1="11.94" x2="190.47" y2="147.7" gradientUnits="userSpaceOnUse">
      <stop offset="0" stop-color="#063"/>
      <stop offset="1" stop-color="#00323d"/>
    </linearGradient>
    <linearGradient id="Gradiente_sem_nome_10" data-name="Gradiente sem nome 10" x1="49.43" y1="26.97" x2="173.88" y2="133.63" gradientUnits="userSpaceOnUse">
      <stop offset="0" stop-color="#00323d"/>
      <stop offset="1" stop-color="#063"/>
    </linearGradient>
    <linearGradient id="Gradiente_sem_nome_13" data-name="Gradiente sem nome 13" x1="31.56" y1="81.5" x2="194.56" y2="81.5" gradientUnits="userSpaceOnUse">
      <stop offset="0" stop-color="#063"/>
      <stop offset="1" stop-color="#00323d"/>
    </linearGradient>
  </defs>
  <rect class="cls-4" y="36.02" width="226.12" height="90.67" rx="28.22" ry="28.22"/>
  <g>
    <circle class="cls-3" cx="113.06" cy="81.5" r="81.5"/>
    <path class="cls-2" d="m113.06,6c41.63,0,75.5,33.87,75.5,75.5s-33.87,75.5-75.5,75.5S37.56,123.14,37.56,81.5,71.43,6,113.06,6m0-6C68.05,0,31.56,36.49,31.56,81.5s36.49,81.5,81.5,81.5,81.5-36.49,81.5-81.5S158.07,0,113.06,0h0Z"/>
  </g>
  <g>
    <path class="cls-1" d="m113.06,71.08c-8.12,0-14.72-6.6-14.72-14.72s6.6-14.72,14.72-14.72,14.72,6.6,14.72,14.72-6.6,14.72-14.72,14.72Zm0-24.44c-5.36,0-9.72,4.36-9.72,9.72s4.36,9.72,9.72,9.72,9.72-4.36,9.72-9.72-4.36-9.72-9.72-9.72Z"/>
    <path class="cls-1" d="m135.72,112.41h-45.33c-.91,0-1.8-.17-2.64-.49-2.89-1.06-4.86-3.88-4.86-7.01v-4.44c0-4.14,3.36-7.5,7.5-7.5h45.33c4.14,0,7.5,3.36,7.5,7.5v4.44c0,3.13-1.97,5.95-4.91,7.03-.77.31-1.66.47-2.59.47Zm-45.33-14.44c-1.38,0-2.5,1.12-2.5,2.5v4.44c0,1.04.66,1.98,1.63,2.33.3.12.58.17.87.17h45.33c.29,0,.57-.05.81-.14,1.04-.38,1.69-1.32,1.69-2.36v-4.44c0-1.38-1.12-2.5-2.5-2.5h-45.33Z"/>
    <path class="cls-1" d="m132.45,121.37h-38.79c-4.14,0-7.5-3.71-7.5-8.28v-6.8l3.52,1.58c.23.1.46.15.71.15h45.33c.25,0,.49-.05.69-.14l3.54-1.62v6.83c0,4.56-3.36,8.28-7.5,8.28Zm-41.29-8.34v.07c0,1.78,1.14,3.28,2.5,3.28h38.79c1.36,0,2.5-1.5,2.5-3.28v-.07h-43.79Z"/>
    <g>
      <path class="cls-1" d="m129.25,97.97c-9.34,0-11.81-8.18-11.81-12.5v-18.57h5v18.57c.01,1.24.4,7.5,6.81,7.5v5Z"/>
      <path class="cls-1" d="m96.87,97.97v-5c6.41,0,6.8-6.26,6.81-7.51v-18.56h5v18.57c0,4.32-2.47,12.5-11.81,12.5Z"/>
    </g>
  </g>
  <polygon class="cls-1" points="135 87.79 125.35 78.14 128.89 74.61 135 80.72 148.91 66.81 152.45 70.35 135 87.79"/>
</svg>